<?xml version="1.0" standalone="no"?>
<!DOCTYPE svg PUBLIC "-//W3C//DTD SVG 20010904//EN"
 "http://www.w3.org/TR/2001/REC-SVG-20010904/DTD/svg10.dtd">
<svg version="1.0" xmlns="http://www.w3.org/2000/svg"
 width="129.000000pt" height="129.000000pt" viewBox="0 0 129.000000 129.000000"
 preserveAspectRatio="xMidYMid meet">

<g transform="translate(0.000000,129.000000) scale(0.100000,-0.100000)"
fill="#000000" stroke="none">
<path d="M1072 1099 c-84 -14 -202 -65 -300 -129 -102 -67 -279 -233 -362
-339 -30 -38 -57 -70 -60 -70 -3 -1 -14 17 -24 39 -41 85 -153 169 -248 186
l-38 6 81 -168 c45 -93 110 -230 146 -304 l64 -135 34 55 c209 342 475 619
756 790 45 27 91 53 103 57 19 6 19 7 -9 14 -40 9 -79 8 -143 -2z"/>
</g>
</svg>
